<svg width="89" height="89" viewBox="0 0 89 89" fill="none" xmlns="http://www.w3.org/2000/svg">
<path d="M33.3656 51.8624C33.4027 55.9562 30.1022 59.3084 26.0008 59.3343C21.903 59.3677 18.5655 56.0712 18.5432 51.9774C18.5062 47.8799 21.8029 44.5426 25.8932 44.5018C29.9947 44.4758 33.3433 47.7761 33.3656 51.8624ZM29.7388 37.0818C25.6448 37.1115 22.2924 33.8187 22.2664 29.7137C22.2331 25.6237 25.5187 22.2826 29.6238 22.2567C33.7105 22.2196 37.0702 25.5087 37.0851 29.6062C37.1296 33.7111 33.8217 37.0447 29.7388 37.0818ZM59.3353 22.1974C59.3501 26.2837 56.0682 29.6433 51.9742 29.6693C47.8727 29.7063 44.5278 26.4098 44.5018 22.316C44.461 18.2148 47.7578 14.8775 51.8629 14.8441C55.9458 14.8219 59.2982 18.111 59.3353 22.1974ZM14.8349 80.9602C31.8452 82.3692 25.7523 64.3032 41.4906 64.1363L48.3066 69.8246C50.005 90.3566 24.8883 94.9361 14.8349 80.9602ZM66.9931 54.5768C72.2849 46.2743 88.6722 18.4299 88.6722 18.4299C89.9812 16.1197 87.0813 13.7094 85.0565 15.4152C85.0565 15.4152 60.6851 36.6035 53.4946 43.3189C47.8134 48.6289 47.7874 51.0541 45.9481 59.809L52.1781 65.0003C60.4367 61.6074 62.8137 61.1439 66.9931 54.5768ZM20.186 72.3981C12.4578 65.6493 7.50343 55.7893 7.41813 44.7836C7.25497 24.3518 23.7572 7.59102 44.2051 7.42416C58.4379 7.34629 68.2317 14.4882 68.2947 20.2061L74.4617 14.8071C70.7163 6.56387 58.9533 -0.192349 44.1421 0.00418202C19.5816 0.208129 -0.191437 20.2728 0.00139855 44.8429C0.086691 55.641 4.01756 65.4972 10.4701 73.1545C14.0227 74.9789 18.343 74.3745 20.186 72.3981ZM67.642 65.3304C71.5692 72.6354 62.632 77.8268 54.4959 80.1332C53.3685 83.5151 51.518 86.5149 49.4006 88.7027C68.888 86.5112 83.0021 72.7429 72.6372 59.4493C70.9351 61.9893 69.3108 63.8879 67.642 65.3304Z" fill="#C3EED7"/>
</svg>
