<svg width="78" height="85" viewBox="0 0 78 85" fill="none" xmlns="http://www.w3.org/2000/svg">
<path d="M35.4545 70.8333H42.5455V85H35.4545V70.8333ZM45.5768 70.8333L57.7023 85H67.0162L54.912 70.8333H45.5768ZM10.9271 85H20.241L32.3665 70.8333H23.0313L10.9271 85ZM37.8655 31.8502L43.1695 37.1521L55.1921 25.1777L58.149 28.1173L60.2727 17.7083L49.6364 19.6492L52.6748 22.6737L43.1907 32.1619L37.8725 26.8458L24.8678 39.6702L27.3674 42.1813L37.8655 31.8502ZM60.2727 46.0417H21.2727V17.7083H17.7273V49.5833H60.2727V46.0417ZM78 10.625H74.4545V63.75H3.54545V10.625H0V0H78V10.625ZM67.3636 10.625H10.6364V56.6667H67.3636V10.625Z" fill="#C3EED7"/>
</svg>
